HIERARCHY
ROOT Hips
{
  OFFSET 2.26061 22.2878 23.7974
  CHANNELS 6 Xposition Yposition Zposition Zrotation Xrotation Yrotation
  JOINT LeftUpLeg
  {
    OFFSET 8.64259 1.95398 -2.38835
    CHANNELS 3 Zrotation Xrotation Yrotation
    JOINT LeftLeg
    {
      OFFSET 43.7702 0 0
      CHANNELS 3 Zrotation Xrotation Yrotation
      JOINT LeftFoot
      {
        OFFSET 40.6238 0 0
        CHANNELS 3 Zrotation Xrotation Yrotation
        JOINT LeftToeBase
        {
          OFFSET 12.7242 0 0
          CHANNELS 3 Zrotation Xrotation Yrotation
          End Site
          {
            OFFSET 0 0 0
          }
        }
      }
    }
  }
  JOINT RightUpLeg
  {
    OFFSET -8.2249 1.95398 -2.59336
    CHANNELS 3 Zrotation Xrotation Yrotation
    JOINT RightLeg
    {
      OFFSET 43.5653 0 0
      CHANNELS 3 Zrotation Xrotation Yrotation
      JOINT RightFoot
      {
        OFFSET 40.6238 0 0
        CHANNELS 3 Zrotation Xrotation Yrotation
        JOINT RightToeBase
        {
          OFFSET 12.7242 0 0
          CHANNELS 3 Zrotation Xrotation Yrotation
          End Site
          {
            OFFSET 0 0 0
          }
        }
      }
    }
  }
  JOINT Spine
  {
    OFFSET 0.165834 0.87714 6.61349
    CHANNELS 3 Zrotation Xrotation Yrotation
    JOINT Spine1
    {
      OFFSET 7.38963 1.71661e-005 0
      CHANNELS 3 Zrotation Xrotation Yrotation
      JOINT Spine2
      {
        OFFSET 11.9445 1.14441e-005 0
        CHANNELS 3 Zrotation Xrotation Yrotation
        JOINT Spine3
        {
          OFFSET 14.7254 4.19617e-005 0
          CHANNELS 3 Zrotation Xrotation Yrotation
          JOINT Spine4
          {
            OFFSET 10.9679 0 0
            CHANNELS 3 Zrotation Xrotation Yrotation
            JOINT RightShoulder
            {
              OFFSET 2.46616 -1.6653 3.69651
              CHANNELS 3 Zrotation Xrotation Yrotation
              JOINT RightArm
              {
                OFFSET 13.0012 0 0
                CHANNELS 3 Zrotation Xrotation Yrotation
                JOINT RightForeArm
                {
                  OFFSET 28.7848 1.52588e-005 0
                  CHANNELS 3 Zrotation Xrotation Yrotation
                  JOINT RightHand
                  {
                    OFFSET 26.5688 1.52588e-005 0
                    CHANNELS 3 Zrotation Xrotation Yrotation
                    End Site
                    {
                      OFFSET 0 0 0
                    }
                  }
                }
              }
            }
            JOINT LeftShoulder
            {
              OFFSET 2.38034 -1.29275 -3.7523
              CHANNELS 3 Zrotation Xrotation Yrotation
              JOINT LeftArm
              {
                OFFSET 16.3182 6.10351e-005 0
                CHANNELS 3 Zrotation Xrotation Yrotation
                JOINT LeftForeArm
                {
                  OFFSET 27.0901 0 0
                  CHANNELS 3 Zrotation Xrotation Yrotation
                  JOINT LeftHand
                  {
                    OFFSET 24.5451 1.52588e-005 0
                    CHANNELS 3 Zrotation Xrotation Yrotation
                    End Site
                    {
                      OFFSET 0 0 0
                    }
                  }
                }
              }
            }
            JOINT Neck
            {
              OFFSET 5.0226 -0.0266342 0
              CHANNELS 3 Zrotation Xrotation Yrotation
              JOINT Head
              {
                OFFSET 6.69363 2.86102e-005 0
                CHANNELS 3 Zrotation Xrotation Yrotation
                End Site
                {
                  OFFSET 0 0 0
                }
              }
            }
          }
        }
      }
    }
  }
}
MOTION
Frames:	10
Frame Time:	0.0416667
-288.441 86.6012 -266.352 118.323 -4.19612 69.7244 -119.825 -19.0048 131.618 0.87013 58.8565 -3.74079 11.9171 -55.9469 -25.5914 -147.123 -49.0037 -77.8377 -98.7093 -22.9938 135.109 -93.6371 -12.0377 -75.9822 151.804 -34.4094 1.48314 -7.18949 10.3195 -30.4527 -1.88082 9.59571 -88.086 7.71783 -2.92207 3.93091 -3.95617 -2.7464 4.0555 -26.489 -3.96979 2.87163 -6.47634 -3.96981 2.87163 -156.628 -41.9586 47.2556 123.454 -41.0173 -67.8628 33.6341 4.15331 -104.826 -58.5143 -13.3567 22.3814 -47.9546 -69.2064 133.546 -5.12933 38.8366 -38.7259 148.537 13.868 -143.334 6.62247 -1.82946 -26.2116 -118.294 -28.8985 128.993 76.3452 8.58943 -138.166 
-288.792 86.6075 -266.666 118.525 -4.32383 69.7444 -119.383 -18.9748 131.736 0.993128 60.1382 -3.68588 10.7909 -56.571 -27.204 -142.808 -45.9475 -75.7439 -98.5938 -23.003 135.714 -94.2781 -11.5927 -76.2358 151.73 -34.8682 1.21377 -7.41206 10.3819 -30.4678 -1.87906 9.62806 -88.0517 7.65299 -2.90486 3.99474 -4.02123 -2.72643 4.11852 -26.5526 -3.97093 2.93776 -6.53992 -3.97094 2.93775 -156.868 -41.913 47.0924 122.107 -40.9138 -68.8208 33.9494 5.7039 -105.397 -58.7832 -13.3749 22.4126 -47.944 -68.9439 133.65 -4.9406 38.7542 -38.6142 148.711 13.7365 -143.748 6.53061 -1.80352 -26.1107 -115.258 -27.053 130.984 77.1635 9.45346 -140.699 
-289.79 86.6309 -267.555 119.092 -4.69222 69.8007 -118.954 -18.0697 132.771 2.88213 63.4653 -7.91668 9.32412 -57.6057 -29.452 -131.631 -37.2168 -71.5945 -98.322 -23.0898 137.407 -96.2392 -10.351 -77.0203 151.425 -36.2993 0.347595 -8.04206 10.5608 -30.5144 -1.87426 9.71934 -87.9531 7.47004 -2.85609 4.17831 -4.20488 -2.66962 4.29972 -26.7316 -3.97922 3.12772 -6.71894 -3.9792 3.12773 -157.513 -41.7909 46.6543 118.343 -40.555 -71.4419 34.9051 10.1211 -107.023 -59.3391 -13.3834 22.5418 -47.9066 -68.2094 133.952 -4.36901 38.5144 -38.2999 149.178 13.3591 -144.862 6.27436 -1.73214 -25.8317 -111.263 -24.9286 133.744 78.8243 11.2031 -142.734 
-291.343 86.674 -268.929 119.961 -5.27896 69.8883 -119.663 -15.4395 135.528 11.761 67.1982 -24.5537 9.46869 -57.7251 -29.5792 -115.29 -24.6925 -68.5155 -98.0242 -23.3974 139.987 -99.8051 -8.46382 -78.3742 150.598 -39.016 -1.4115 -9.02348 10.8413 -30.5855 -1.86709 9.85934 -87.797 7.18915 -2.78001 4.46934 -4.48691 -2.58084 4.58708 -27.0059 -3.99398 3.42857 -6.99322 -3.99399 3.42856 -158.426 -41.619 46.0296 112.645 -39.8274 -75.2303 36.6299 17.0006 -109.701 -59.6283 -13.2809 22.864 -47.8289 -67.0915 134.443 -3.38486 38.1316 -37.8193 149.83 12.7607 -146.425 5.8939 -1.62878 -25.4188 -111.53 -27.032 134.185 79.8385 13.1961 -137.719 
-293.357 86.7341 -270.697 121.063 -6.06138 70.002 -119.297 -13.543 137.929 27.8589 71.0867 -45.3957 6.08016 -57.8015 -35.6546 -92.3441 -13.3487 -67.193 -97.8373 -24.1544 143.247 -105.965 -6.06381 -80.3249 148.394 -43.942 -5.07256 -10.3098 11.207 -30.6635 -1.8581 10.0369 -87.5903 6.83251 -2.68111 4.8562 -4.84517 -2.46505 4.96914 -27.3531 -4.01566 3.82783 -7.34042 -4.01565 3.82783 -159.468 -41.428 45.3099 105.632 -38.6204 -79.5592 39.4889 25.8071 -113.565 -59.1386 -12.9706 23.448 -47.694 -65.6792 135.119 -1.94169 37.6341 -37.2092 150.541 11.9985 -148.142 5.44601 -1.51037 -24.9255 -113.445 -31.2111 133.586 80.2547 15.6348 -129.073 
-295.738 86.8048 -272.77 122.332 -7.01529 70.1383 -117.974 -12.3024 139.89 54.4879 73.4421 -74.0944 2.06213 -56.9094 -45.7997 -58.828 -10.0217 -61.7627 -97.8909 -25.7003 146.983 -117.911 -3.22176 -82.7812 140.984 -53.5018 -15.0259 -11.8691 11.6425 -30.726 -1.84822 10.2404 -87.3392 6.42275 -2.56393 5.32774 -5.25702 -2.32734 5.43502 -27.7503 -4.04525 4.31354 -7.73761 -4.04525 4.31352 -160.507 -41.251 44.5796 98.0315 -36.911 -83.7661 44.1696 35.7625 -118.995 -57.6422 -12.3928 24.2512 -47.4885 -64.0558 135.975 0.0033915 37.0708 -36.5003 151.183 11.1795 -149.722 4.99577 -1.39404 -24.4091 -103.115 -24.6073 140.929 85.4629 18.421 -135.616 
-298.388 86.8778 -275.057 123.701 -8.11351 70.2945 -115.947 -11.5566 141.457 83.6574 72.0266 -103.646 2.33279 -53.9773 -55.3799 -15.1958 -12.0552 -40.2246 -98.241 -28.8034 151.009 -144.138 0.266772 -84.3299 98.8948 -68.1618 -62.6584 -13.6851 12.1393 -30.7598 -1.83849 10.4581 -87.0501 5.98303 -2.4336 5.87248 -5.69936 -2.17326 5.97342 -28.1741 -4.08411 4.8732 -8.16141 -4.08409 4.8732 -161.423 -41.1218 43.915 90.5477 -34.811 -87.3037 51.7633 45.7526 -126.827 -55.2408 -11.5386 25.1104 -47.203 -62.2999 137.003 2.46878 36.5083 -35.7087 151.655 10.4475 -150.902 4.60306 -1.29419 -23.9278 -92.2165 -13.9591 148.097 92.8533 19.2287 -145.797 
-301.208 86.9472 -277.469 125.109 -9.32435 70.4684 -113.464 -11.2145 142.719 104.132 67.652 -123.682 9.76972 -49.6861 -60.1811 16.6605 -6.27693 -13.5802 -100.619 -31.0817 154.25 -174.143 0.953323 -81.6458 40.9928 -57.5719 -122.973 -15.7542 12.7208 -30.8103 -1.83011 10.6782 -86.7305 5.53681 -2.29555 6.47736 -6.14871 -2.00892 6.57155 -28.6008 -4.13345 5.49274 -8.58819 -4.13345 5.49274 -162.111 -41.0717 43.3833 83.7181 -32.5262 -89.8681 63.6452 54.3643 -138.294 -52.2846 -10.4668 25.81 -46.831 -60.487 138.192 5.42135 36.0188 -34.8276 151.89 9.94673 -151.491 4.30898 -1.2199 -23.5379 -87.925 -11.2203 151.688 97.2088 20.2789 -145.061 
-304.099 87.0275 -279.915 126.5 -10.6136 70.6595 -110.819 -11.2017 143.823 117.08 61.5788 -135.883 22.4676 -45.3043 -59.3017 29.4513 0.0716873 4.84789 -107.926 -32.4897 155.205 160.561 -4.09181 -78.1507 22.2307 -39.5222 -137.085 -18.1046 13.5384 -31.1354 -1.82422 10.8896 -86.3885 5.10615 -2.15524 7.12732 -6.58301 -1.84027 7.21463 -29.0086 -4.19387 6.15621 -8.99592 -4.19388 6.15619 -162.488 -41.1242 43.0398 77.8205 -30.2543 -91.4314 80.449 60.1527 -154.056 -49.1843 -9.29156 26.1937 -46.3724 -58.6867 139.519 8.75392 35.655 -33.8231 151.873 9.77415 -151.397 4.12749 -1.17461 -23.2882 -84.6828 -10.1111 154.814 100.859 21.4312 -142.197 
-306.972 86.8918 -282.328 127.827 -11.9474 70.8693 -108.594 -11.2833 145.18 121.2 55.8291 -140.23 35.2428 -38.3172 -55.5762 33.42 2.90314 18.3796 -126.31 -36.4909 151.985 -78.5562 14.918 -93.5313 168.017 -15.0934 46.9037 -22.5921 14.6803 -30.9426 -1.82145 11.0829 -86.033 4.71007 -2.01693 7.80564 -6.98323 -1.67252 7.88612 -29.3785 -4.26446 6.84631 -9.36582 -4.26445 6.84631 -162.494 -41.2915 42.9275 72.917 -28.1102 -92.1488 99.7829 62.1676 -171.844 -46.2472 -8.13086 26.2151 -45.834 -56.9613 140.955 12.2912 35.4315 -32.6442 151.617 9.95604 -150.638 4.05122 -1.15781 -23.2181 -81.6798 -9.48513 157.791 104.225 22.5554 -138.82 
